# xmcd
#
# Track frame offsets:
# 150
# 112516
# 141243
# 172913
# 205733
#
# Disc length: 3191 seconds
#
#
# Revision: 1
# Processed by: cddbd v1.5.2PL0 Copyright (c) Steve Scherf et al.
# Submitted via: FreeRIP 2.945 
#
DISCID=360c7505
DTITLE=Eric Triger - Tantra
DYEAR=1900
DGENRE=New Age
TTITLE0=A Grande Meditação das Manhãs de Varanasi
TTITLE1=Kundalini
TTITLE2=Roda da Vida
TTITLE3=Tantra
TTITLE4=Último Ciclo
EXTD=
EXTT0=
EXTT1=
EXTT2=
EXTT3=
EXTT4=
PLAYORDER=
